<?xml version="1.0" encoding="UTF-8" standalone="no"?> <svg width="64" height="64" viewBox="0 0 64 64" fill="none" xmlns="http://www.w3.org/2000/svg">
<path d="M6 17C6 10.9249 10.9249 6 17 6C23.0751 6 28 10.9249 28 17C28 23.0751 23.0751 28 17 28C10.9249 28 6 23.0751 6 17Z" fill="#F3DFB7"/>
<path fill-rule="evenodd" clip-rule="evenodd" d="M17 30C9.8203 30 4 24.1797 4 17C4 9.8203 9.8203 4 17 4C24.1797 4 30 9.8203 30 17C30 24.1797 24.1797 30 17 30ZM17 6C10.9249 6 6 10.9249 6 17C6 23.0751 10.9249 28 17 28C23.0751 28 28 23.0751 28 17C28 10.9249 23.0751 6 17 6Z" fill="#826E47"/>
<path fill-rule="evenodd" clip-rule="evenodd" d="M17 6C10.9249 6 6 10.9249 6 17C6 20.292 7.44614 23.2463 9.73781 25.2622C8.03357 23.3248 7 20.7831 7 18C7 11.9249 11.9249 7 18 7C20.7831 7 23.3248 8.03357 25.2622 9.73781C23.2463 7.44614 20.292 6 17 6Z" fill="#FFF3DC"/>
<path fill-rule="evenodd" clip-rule="evenodd" d="M16 22C16 22.5523 16.4477 23 17 23C17.5523 23 18 22.5523 18 22V18H22C22.5523 18 23 17.5523 23 17C23 16.4477 22.5523 16 22 16H18V12C18 11.4477 17.5523 11 17 11C16.4477 11 16 11.4477 16 12V16H12C11.4477 16 11 16.4477 11 17C11 17.5523 11.4477 18 12 18H16V22Z" fill="#F3DFB7"/>
<path fill-rule="evenodd" clip-rule="evenodd" d="M17 25C15.3431 25 14 23.6569 14 22V20H12C10.3431 20 9 18.6569 9 17C9 15.3431 10.3431 14 12 14H14V12C14 10.3431 15.3431 9 17 9C18.6569 9 20 10.3431 20 12V14H22C23.6569 14 25 15.3431 25 17C25 18.6569 23.6569 20 22 20H20V22C20 23.6569 18.6569 25 17 25ZM17 23C16.4477 23 16 22.5523 16 22V18H12C11.4477 18 11 17.5523 11 17C11 16.4477 11.4477 16 12 16H16V12C16 11.4477 16.4477 11 17 11C17.5523 11 18 11.4477 18 12V16H22C22.5523 16 23 16.4477 23 17C23 17.5523 22.5523 18 22 18H18V22C18 22.5523 17.5523 23 17 23Z" fill="#826E47"/>
<path d="M17 23C16.4477 23 16 22.5523 16 22V19H17V23Z" fill="#FFF3DC"/>
<path d="M23 17C23 16.4477 22.5523 16 22 16H19V17H23Z" fill="#FFF3DC"/>
<path d="M18 12C18 11.4477 17.5523 11 17 11C16.4477 11 16 11.4477 16 12V16H12C11.4477 16 11 16.4477 11 17C11 17.5523 11.4477 18 12 18C12 17.4477 12.4477 17 13 17H17V13C17 12.4477 17.4477 12 18 12Z" fill="#FFF3DC"/>
<path d="M6 47C6 40.9249 10.9249 36 17 36C23.0751 36 28 40.9249 28 47C28 53.0751 23.0751 58 17 58C10.9249 58 6 53.0751 6 47Z" fill="#686666"/>
<path fill-rule="evenodd" clip-rule="evenodd" d="M17 60C9.8203 60 4 54.1797 4 47C4 39.8203 9.8203 34 17 34C24.1797 34 30 39.8203 30 47C30 54.1797 24.1797 60 17 60ZM17 36C10.9249 36 6 40.9249 6 47C6 53.0751 10.9249 58 17 58C23.0751 58 28 53.0751 28 47C28 40.9249 23.0751 36 17 36Z" fill="#433D3D"/>
<path fill-rule="evenodd" clip-rule="evenodd" d="M17 36C10.9249 36 6 40.9249 6 47C6 50.292 7.44614 53.2463 9.73781 55.2622C8.03357 53.3248 7 50.7831 7 48C7 41.9249 11.9249 37 18 37C20.7831 37 23.3248 38.0336 25.2622 39.7378C23.2463 37.4461 20.292 36 17 36Z" fill="#999494"/>
<path fill-rule="evenodd" clip-rule="evenodd" d="M19.8284 51.2426C20.2189 51.6332 20.852 51.6332 21.2426 51.2426C21.6331 50.8521 21.6331 50.219 21.2426 49.8284L18.4141 47L21.2426 44.1716C21.6331 43.781 21.6331 43.1479 21.2426 42.7574C20.852 42.3668 20.2189 42.3668 19.8284 42.7574L16.9999 45.5858L14.1715 42.7574C13.781 42.3668 13.1478 42.3668 12.7573 42.7574C12.3668 43.1479 12.3668 43.781 12.7573 44.1716L15.5857 47L12.7573 49.8284C12.3668 50.219 12.3668 50.8521 12.7573 51.2426C13.1478 51.6332 13.781 51.6332 14.1715 51.2426L16.9999 48.4142L19.8284 51.2426Z" fill="#686666"/>
<path fill-rule="evenodd" clip-rule="evenodd" d="M22.6568 52.6569C21.4853 53.8284 19.5858 53.8284 18.4142 52.6569L17 51.2426L15.5858 52.6569C14.4142 53.8284 12.5147 53.8284 11.3431 52.6569C10.1716 51.4853 10.1716 49.5858 11.3431 48.4142L12.7573 47L11.3431 45.5858C10.1716 44.4142 10.1716 42.5147 11.3431 41.3431C12.5147 40.1716 14.4142 40.1716 15.5858 41.3431L17 42.7574L18.4142 41.3431C19.5858 40.1716 21.4853 40.1716 22.6568 41.3431C23.8284 42.5147 23.8284 44.4142 22.6568 45.5858L21.2426 47L22.6568 48.4142C23.8284 49.5858 23.8284 51.4853 22.6568 52.6569ZM21.2426 51.2426C20.8521 51.6332 20.2189 51.6332 19.8284 51.2426L17 48.4142L14.1716 51.2426C13.781 51.6332 13.1479 51.6332 12.7573 51.2426C12.3668 50.8521 12.3668 50.219 12.7573 49.8284L15.5858 47L12.7573 44.1716C12.3668 43.781 12.3668 43.1479 12.7573 42.7574C13.1479 42.3668 13.781 42.3668 14.1716 42.7574L17 45.5858L19.8284 42.7574C20.2189 42.3668 20.8521 42.3668 21.2426 42.7574C21.6332 43.1479 21.6332 43.781 21.2426 44.1716L18.4142 47L21.2426 49.8284C21.6332 50.219 21.6332 50.8521 21.2426 51.2426Z" fill="#433D3D"/>
<path fill-rule="evenodd" clip-rule="evenodd" d="M13.4646 51.5355C13.4646 51.2796 13.5622 51.0237 13.7575 50.8284L16.5859 48L15.5859 47L12.7575 49.8284C12.367 50.219 12.367 50.8521 12.7575 51.2427C12.9528 51.4379 13.2087 51.5355 13.4646 51.5355ZM13.7575 45.1716C13.367 44.7811 13.367 44.1479 13.7575 43.7574C14.148 43.3668 14.7812 43.3668 15.1717 43.7574L14.1717 42.7574C13.7812 42.3668 13.148 42.3668 12.7575 42.7574C12.367 43.1479 12.367 43.7811 12.7575 44.1716L13.7575 45.1716ZM17.0001 45.5858L18.0001 46.5858L20.8286 43.7574C21.0238 43.5621 21.2797 43.4645 21.5357 43.4645C21.5357 43.2086 21.438 42.9526 21.2428 42.7574C20.8523 42.3668 20.2191 42.3668 19.8286 42.7574L17.0001 45.5858Z" fill="#999494"/>
<path d="M36 17C36 10.9249 40.9249 6 47 6C53.0751 6 58 10.9249 58 17C58 23.0751 53.0751 28 47 28C40.9249 28 36 23.0751 36 17Z" fill="#686666"/>
<path fill-rule="evenodd" clip-rule="evenodd" d="M47 30C39.8203 30 34 24.1797 34 17C34 9.8203 39.8203 4 47 4C54.1797 4 60 9.8203 60 17C60 24.1797 54.1797 30 47 30ZM47 6C40.9249 6 36 10.9249 36 17C36 23.0751 40.9249 28 47 28C53.0751 28 58 23.0751 58 17C58 10.9249 53.0751 6 47 6Z" fill="#433D3D"/>
<path fill-rule="evenodd" clip-rule="evenodd" d="M47 6C40.9249 6 36 10.9249 36 17C36 20.292 37.4461 23.2463 39.7378 25.2622C38.0336 23.3248 37 20.7831 37 18C37 11.9249 41.9249 7 48 7C50.7831 7 53.3248 8.03357 55.2622 9.73781C53.2463 7.44614 50.292 6 47 6Z" fill="#999494"/>
<path d="M41 17C41 16.4477 41.4477 16 42 16H52C52.5523 16 53 16.4477 53 17C53 17.5523 52.5523 18 52 18H42C41.4477 18 41 17.5523 41 17Z" fill="#686666"/>
<path fill-rule="evenodd" clip-rule="evenodd" d="M42 14H52C53.6569 14 55 15.3431 55 17C55 18.6569 53.6569 20 52 20H42C40.3431 20 39 18.6569 39 17C39 15.3431 40.3431 14 42 14ZM42 16C41.4477 16 41 16.4477 41 17C41 17.5523 41.4477 18 42 18H52C52.5523 18 53 17.5523 53 17C53 16.4477 52.5523 16 52 16H42Z" fill="#433D3D"/>
<path fill-rule="evenodd" clip-rule="evenodd" d="M42 16C41.4477 16 41 16.4477 41 17C41 17.5523 41.4477 18 42 18C42 17.4477 42.4477 17 43 17H53C53 16.4477 52.5523 16 52 16H42Z" fill="#999494"/>
<path d="M36 47C36 40.9249 40.9249 36 47 36C53.0751 36 58 40.9249 58 47C58 53.0751 53.0751 58 47 58C40.9249 58 36 53.0751 36 47Z" fill="#F55B54"/>
<path fill-rule="evenodd" clip-rule="evenodd" d="M47 60C39.8203 60 34 54.1797 34 47C34 39.8203 39.8203 34 47 34C54.1797 34 60 39.8203 60 47C60 54.1797 54.1797 60 47 60ZM47 36C40.9249 36 36 40.9249 36 47C36 53.0751 40.9249 58 47 58C53.0751 58 58 53.0751 58 47C58 40.9249 53.0751 36 47 36Z" fill="#A83C37"/>
<path fill-rule="evenodd" clip-rule="evenodd" d="M47 36C40.9249 36 36 40.9249 36 47C36 50.292 37.4461 53.2463 39.7378 55.2622C38.0336 53.3248 37 50.7831 37 48C37 41.9249 41.9249 37 48 37C50.7831 37 53.3248 38.0336 55.2622 39.7378C53.2463 37.4461 50.292 36 47 36Z" fill="#FF8B86"/>
<path d="M41 51C41 50.4477 41.4477 50 42 50H52C52.5523 50 53 50.4477 53 51C53 51.5523 52.5523 52 52 52H42C41.4477 52 41 51.5523 41 51Z" fill="#F55B54"/>
<path fill-rule="evenodd" clip-rule="evenodd" d="M42 48H52C53.6569 48 55 49.3431 55 51C55 52.6569 53.6569 54 52 54H42C40.3431 54 39 52.6569 39 51C39 49.3431 40.3431 48 42 48ZM42 50C41.4477 50 41 50.4477 41 51C41 51.5523 41.4477 52 42 52H52C52.5523 52 53 51.5523 53 51C53 50.4477 52.5523 50 52 50H42Z" fill="#A83C37"/>
<path d="M41 43C41 42.4477 41.4477 42 42 42H52C52.5523 42 53 42.4477 53 43C53 43.5523 52.5523 44 52 44H42C41.4477 44 41 43.5523 41 43Z" fill="#F55B54"/>
<path fill-rule="evenodd" clip-rule="evenodd" d="M42 40H52C53.6569 40 55 41.3431 55 43C55 44.6569 53.6569 46 52 46H42C40.3431 46 39 44.6569 39 43C39 41.3431 40.3431 40 42 40ZM42 42C41.4477 42 41 42.4477 41 43C41 43.5523 41.4477 44 42 44H52C52.5523 44 53 43.5523 53 43C53 42.4477 52.5523 42 52 42H42Z" fill="#A83C37"/>
<path fill-rule="evenodd" clip-rule="evenodd" d="M42 50C41.4477 50 41 50.4477 41 51C41 51.5523 41.4477 52 42 52C42 51.4477 42.4477 51 43 51H53C53 50.4477 52.5523 50 52 50H42Z" fill="#FF8B86"/>
<path fill-rule="evenodd" clip-rule="evenodd" d="M42 42C41.4477 42 41 42.4477 41 43C41 43.5523 41.4477 44 42 44C42 43.4477 42.4477 43 43 43H53C53 42.4477 52.5523 42 52 42H42Z" fill="#FF8B86"/>
<path d="M12 11C12 11.5523 11.5523 12 11 12C10.4477 12 10 11.5523 10 11C10 10.4477 10.4477 10 11 10C11.5523 10 12 10.4477 12 11Z" fill="white"/>
</svg>
