<?xml version="1.0" encoding="UTF-8" standalone="no"?> <svg width="64" height="64" viewBox="0 0 64 64" fill="none" xmlns="http://www.w3.org/2000/svg">
<path d="M11.4806 43.2122C11.7957 42.4768 12.5188 42 13.3189 42H50.6813C51.4813 42 52.2044 42.4768 52.5196 43.2122L56.8053 53.2122C57.3709 54.5319 56.4028 56 54.967 56H9.03316C7.59733 56 6.62927 54.5319 7.19487 53.2122L11.4806 43.2122Z" fill="#686666"/>
<path fill-rule="evenodd" clip-rule="evenodd" d="M13.3188 40H50.6812C52.2814 40 53.7275 40.9536 54.3578 42.4243L58.6435 52.4243C59.7747 55.0638 57.8386 58 54.967 58H9.03312C6.16145 58 4.22533 55.0638 5.35654 52.4243L9.64225 42.4243C10.2726 40.9536 11.7187 40 13.3188 40ZM13.3188 42C12.5188 42 11.7957 42.4768 11.4805 43.2122L7.19483 53.2122C6.62923 54.5319 7.59728 56 9.03312 56H54.967C56.4028 56 57.3708 54.5319 56.8052 53.2122L52.5195 43.2122C52.2044 42.4768 51.4813 42 50.6812 42H13.3188Z" fill="#433D3D"/>
<path fill-rule="evenodd" clip-rule="evenodd" d="M7.09556 53.5012C6.77223 54.7372 7.70152 56 9.03316 56H54.967C56.2987 56 57.228 54.7372 56.9046 53.5011C56.6858 54.3367 55.9321 55 54.967 55H9.03314C8.06809 55 7.31436 54.3368 7.09556 53.5012Z" fill="#999494"/>
<path d="M17 50C17 50.5523 16.5523 51 16 51C15.4477 51 15 50.5523 15 50C15 49.4477 15.4477 49 16 49C16.5523 49 17 49.4477 17 50Z" fill="#686666"/>
<path fill-rule="evenodd" clip-rule="evenodd" d="M16 49C15.4477 49 15 49.4477 15 50C15 50.5523 15.4477 51 16 51C16.5523 51 17 50.5523 17 50C17 49.4477 16.5523 49 16 49ZM19 50C19 51.6569 17.6569 53 16 53C14.3431 53 13 51.6569 13 50C13 48.3431 14.3431 47 16 47C17.6569 47 19 48.3431 19 50Z" fill="#433D3D"/>
<path d="M25 50C25 50.5523 24.5523 51 24 51C23.4477 51 23 50.5523 23 50C23 49.4477 23.4477 49 24 49C24.5523 49 25 49.4477 25 50Z" fill="#686666"/>
<path fill-rule="evenodd" clip-rule="evenodd" d="M24 49C23.4477 49 23 49.4477 23 50C23 50.5523 23.4477 51 24 51C24.5523 51 25 50.5523 25 50C25 49.4477 24.5523 49 24 49ZM27 50C27 51.6569 25.6569 53 24 53C22.3431 53 21 51.6569 21 50C21 48.3431 22.3431 47 24 47C25.6569 47 27 48.3431 27 50Z" fill="#433D3D"/>
<path d="M41 50C41 50.5523 40.5523 51 40 51C39.4477 51 39 50.5523 39 50C39 49.4477 39.4477 49 40 49C40.5523 49 41 49.4477 41 50Z" fill="#686666"/>
<path fill-rule="evenodd" clip-rule="evenodd" d="M40 49C39.4477 49 39 49.4477 39 50C39 50.5523 39.4477 51 40 51C40.5523 51 41 50.5523 41 50C41 49.4477 40.5523 49 40 49ZM43 50C43 51.6569 41.6569 53 40 53C38.3431 53 37 51.6569 37 50C37 48.3431 38.3431 47 40 47C41.6569 47 43 48.3431 43 50Z" fill="#433D3D"/>
<path d="M33 50C33 50.5523 32.5523 51 32 51C31.4477 51 31 50.5523 31 50C31 49.4477 31.4477 49 32 49C32.5523 49 33 49.4477 33 50Z" fill="#F55B54"/>
<path fill-rule="evenodd" clip-rule="evenodd" d="M32 49C31.4477 49 31 49.4477 31 50C31 50.5523 31.4477 51 32 51C32.5523 51 33 50.5523 33 50C33 49.4477 32.5523 49 32 49ZM35 50C35 51.6569 33.6569 53 32 53C30.3431 53 29 51.6569 29 50C29 48.3431 30.3431 47 32 47C33.6569 47 35 48.3431 35 50Z" fill="#A83C37"/>
<path d="M49 50C49 50.5523 48.5523 51 48 51C47.4477 51 47 50.5523 47 50C47 49.4477 47.4477 49 48 49C48.5523 49 49 49.4477 49 50Z" fill="#686666"/>
<path fill-rule="evenodd" clip-rule="evenodd" d="M48 49C47.4477 49 47 49.4477 47 50C47 50.5523 47.4477 51 48 51C48.5523 51 49 50.5523 49 50C49 49.4477 48.5523 49 48 49ZM51 50C51 51.6569 49.6569 53 48 53C46.3431 53 45 51.6569 45 50C45 48.3431 46.3431 47 48 47C49.6569 47 51 48.3431 51 50Z" fill="#433D3D"/>
<path fill-rule="evenodd" clip-rule="evenodd" d="M16 45C16 44.4477 16.4477 44 17 44H47C47.5523 44 48 44.4477 48 45C48 45.5523 47.5523 46 47 46H17C16.4477 46 16 45.5523 16 45Z" fill="#433D3D"/>
<path d="M10 16C10 11.5817 13.5817 8 18 8H46C50.4183 8 54 11.5817 54 16V34C54 36.2091 52.2091 38 50 38H14C11.7909 38 10 36.2091 10 34V16Z" fill="#F3DFB7"/>
<path fill-rule="evenodd" clip-rule="evenodd" d="M18 6H46C51.5228 6 56 10.4772 56 16V34C56 37.3137 53.3137 40 50 40H14C10.6863 40 8 37.3137 8 34V16C8 10.4772 12.4772 6 18 6ZM18 8C13.5817 8 10 11.5817 10 16V34C10 36.2091 11.7909 38 14 38H50C52.2091 38 54 36.2091 54 34V16C54 11.5817 50.4183 8 46 8H18Z" fill="#826E47"/>
<path fill-rule="evenodd" clip-rule="evenodd" d="M18 8C13.5817 8 10 11.5817 10 16V34C10 35.36 10.6787 36.5614 11.7159 37.2841C11.2646 36.6365 11 35.8492 11 35V17C11 12.5817 14.5817 9 19 9H47C48.9545 9 50.7454 9.70094 52.1348 10.8652C50.6673 9.11371 48.4637 8 46 8H18Z" fill="#FFF3DC"/>
<path d="M14 16C14 13.7909 15.7909 12 18 12H46C48.2091 12 50 13.7909 50 16V32C50 33.1046 49.1046 34 48 34H16C14.8954 34 14 33.1046 14 32V16Z" fill="#5EE9E0"/>
<path fill-rule="evenodd" clip-rule="evenodd" d="M18 10H46C49.3137 10 52 12.6863 52 16V32C52 34.2091 50.2091 36 48 36H16C13.7909 36 12 34.2091 12 32V16C12 12.6863 14.6863 10 18 10ZM18 12C15.7909 12 14 13.7909 14 16V32C14 33.1046 14.8954 34 16 34H48C49.1046 34 50 33.1046 50 32V16C50 13.7909 48.2091 12 46 12H18Z" fill="#2A9891"/>
<path fill-rule="evenodd" clip-rule="evenodd" d="M18 12C15.7909 12 14 13.7909 14 16V32C14 32.8111 14.4828 33.5094 15.1768 33.8232C15.0632 33.5722 15 33.2935 15 33V17C15 14.7909 16.7909 13 19 13H47C47.8492 13 48.6365 13.2646 49.2841 13.7159C48.5614 12.6787 47.36 12 46 12H18Z" fill="#88FDF6"/>
<path fill-rule="evenodd" clip-rule="evenodd" d="M35.7726 16.001C36.2141 15.9809 36.6164 16.2529 36.7622 16.6701L38.9826 23.0244H42.2246L43.3405 20.1503C43.4944 19.7538 43.8823 19.4981 44.3073 19.5128C44.7323 19.5275 45.1016 19.8094 45.2277 20.2156L46.1002 23.0244H47C47.5523 23.0244 48 23.4721 48 24.0244C48 24.5767 47.5523 25.0244 47 25.0244H45.3636C44.9256 25.0244 44.5386 24.7393 44.4086 24.321L44.1678 23.5455L43.8413 24.3863C43.692 24.771 43.3217 25.0244 42.9091 25.0244H38.2727C37.8476 25.0244 37.4689 24.7556 37.3287 24.3543L35.9773 20.4868L33.7883 29.2425C33.6856 29.6534 33.3352 29.9551 32.9136 29.9955C32.4919 30.0358 32.0906 29.8062 31.9117 29.4223L29.1809 23.561H26.4638L25.3186 27.2479C25.193 27.6523 24.8262 27.9338 24.403 27.9505C23.9798 27.9671 23.592 27.7154 23.435 27.3221L22.027 23.7965L20.6823 28.1259C20.5554 28.5344 20.1827 28.817 19.7551 28.8289C19.3275 28.8408 18.9396 28.5794 18.7902 28.1785L17.9419 25.9024H17C16.4477 25.9024 16 25.4547 16 24.9024C16 24.3502 16.4477 23.9024 17 23.9024H18.6364C19.0539 23.9024 19.4276 24.1619 19.5734 24.5532L19.6412 24.7351L20.9541 20.5083C21.0797 20.1038 21.4465 19.8223 21.8697 19.8057C22.2929 19.789 22.6807 20.0407 22.8378 20.434L24.2457 23.9596L24.7723 22.2644C24.9022 21.846 25.2893 21.561 25.7273 21.561H29.8182C30.2069 21.561 30.5605 21.7863 30.7246 22.1387L32.5326 26.0192L34.848 16.7575C34.9552 16.3287 35.3311 16.0212 35.7726 16.001Z" fill="#88FDF6"/>
</svg>
