<?xml version="1.0" encoding="UTF-8" standalone="no"?> <svg width="64" height="64" viewBox="0 0 64 64" fill="none" xmlns="http://www.w3.org/2000/svg">
<path d="M6 32C6 17.6406 17.6406 6 32 6C46.3594 6 58 17.6406 58 32C58 46.3594 46.3594 58 32 58C17.6406 58 6 46.3594 6 32Z" fill="#686666"/>
<path fill-rule="evenodd" clip-rule="evenodd" d="M32 60C16.536 60 4 47.464 4 32C4 16.536 16.536 4 32 4C47.464 4 60 16.536 60 32C60 47.464 47.464 60 32 60ZM32 6C17.6406 6 6 17.6406 6 32C6 46.3594 17.6406 58 32 58C46.3594 58 58 46.3594 58 32C58 17.6406 46.3594 6 32 6Z" fill="#433D3D"/>
<path fill-rule="evenodd" clip-rule="evenodd" d="M32 6C17.6406 6 6 17.6406 6 32C6 39.4341 9.11999 46.1394 14.122 50.878C9.70761 46.2183 7 39.9254 7 33C7 18.6406 18.6406 7 33 7C39.9254 7 46.2183 9.70761 50.878 14.122C46.1394 9.11999 39.4341 6 32 6Z" fill="#999494"/>
<path d="M11 32C11 20.402 20.402 11 32 11C43.598 11 53 20.402 53 32C53 43.598 43.598 53 32 53C20.402 53 11 43.598 11 32Z" fill="#F55B54"/>
<path fill-rule="evenodd" clip-rule="evenodd" d="M32 55C19.2975 55 9 44.7025 9 32C9 19.2975 19.2975 9 32 9C44.7025 9 55 19.2975 55 32C55 44.7025 44.7025 55 32 55ZM32 11C20.402 11 11 20.402 11 32C11 43.598 20.402 53 32 53C43.598 53 53 43.598 53 32C53 20.402 43.598 11 32 11Z" fill="#A83C37"/>
<path fill-rule="evenodd" clip-rule="evenodd" d="M32 11C20.402 11 11 20.402 11 32C11 38.0534 13.5612 43.5085 17.6591 47.3409C14.1488 43.5874 12 38.5446 12 33C12 21.402 21.402 12 33 12C38.5446 12 43.5874 14.1488 47.3409 17.6591C43.5085 13.5612 38.0534 11 32 11Z" fill="#FF8B86"/>
<path d="M16 32C16 23.1634 23.1634 16 32 16C40.8366 16 48 23.1634 48 32C48 40.8366 40.8366 48 32 48C23.1634 48 16 40.8366 16 32Z" fill="#F3DFB7"/>
<path fill-rule="evenodd" clip-rule="evenodd" d="M32 50C22.0589 50 14 41.9411 14 32C14 22.0589 22.0589 14 32 14C41.9411 14 50 22.0589 50 32C50 41.9411 41.9411 50 32 50ZM32 16C23.1634 16 16 23.1634 16 32C16 40.8366 23.1634 48 32 48C40.8366 48 48 40.8366 48 32C48 23.1634 40.8366 16 32 16Z" fill="#826E47"/>
<path fill-rule="evenodd" clip-rule="evenodd" d="M32 16C23.1634 16 16 23.1634 16 32C16 36.6727 18.003 40.8775 21.1973 43.8027C18.5906 40.9563 17 37.1639 17 33C17 24.1634 24.1634 17 33 17C37.1639 17 40.9563 18.5906 43.8027 21.1973C40.8775 18.003 36.6727 16 32 16Z" fill="#FFF3DC"/>
<path d="M22 32C22 26.4772 26.4772 22 32 22C37.5228 22 42 26.4772 42 32C42 37.5228 37.5228 42 32 42C26.4772 42 22 37.5228 22 32Z" fill="#F55B54"/>
<path fill-rule="evenodd" clip-rule="evenodd" d="M32 44C25.3726 44 20 38.6274 20 32C20 25.3726 25.3726 20 32 20C38.6274 20 44 25.3726 44 32C44 38.6274 38.6274 44 32 44ZM32 22C26.4772 22 22 26.4772 22 32C22 37.5228 26.4772 42 32 42C37.5228 42 42 37.5228 42 32C42 26.4772 37.5228 22 32 22Z" fill="#A83C37"/>
<path fill-rule="evenodd" clip-rule="evenodd" d="M32 22C26.4772 22 22 26.4772 22 32C22 35.0159 23.3351 37.72 25.4465 39.5535C23.9225 37.7984 23 35.5069 23 33C23 27.4772 27.4772 23 33 23C35.5069 23 37.7984 23.9225 39.5535 25.4465C37.72 23.3351 35.0159 22 32 22Z" fill="#FF8B86"/>
<path d="M27 32C27 29.2386 29.2386 27 32 27C34.7614 27 37 29.2386 37 32C37 34.7614 34.7614 37 32 37C29.2386 37 27 34.7614 27 32Z" fill="#F3DFB7"/>
<path fill-rule="evenodd" clip-rule="evenodd" d="M32 39C28.134 39 25 35.866 25 32C25 28.134 28.134 25 32 25C35.866 25 39 28.134 39 32C39 35.866 35.866 39 32 39ZM32 27C29.2386 27 27 29.2386 27 32C27 34.7614 29.2386 37 32 37C34.7614 37 37 34.7614 37 32C37 29.2386 34.7614 27 32 27Z" fill="#826E47"/>
<path fill-rule="evenodd" clip-rule="evenodd" d="M32 27C29.2386 27 27 29.2386 27 32C27 33.6357 27.7855 35.088 28.9998 36.0002C28.372 35.1645 28 34.1257 28 33C28 30.2386 30.2386 28 33 28C34.1257 28 35.1645 28.372 36.0002 28.9998C35.088 27.7855 33.6357 27 32 27Z" fill="#FFF3DC"/>
<path fill-rule="evenodd" clip-rule="evenodd" d="M51 4C52.6569 4 54 5.34315 54 7V10H57C58.6569 10 60 11.3431 60 13C60 14.6569 58.6569 16 57 16H51C49.3431 16 48 14.6569 48 13V7C48 5.34315 49.3431 4 51 4Z" fill="#292323"/>
<path fill-rule="evenodd" clip-rule="evenodd" d="M47 8C48.6569 8 50 9.34315 50 11V14H53C54.6569 14 56 15.3431 56 17C56 18.6569 54.6569 20 53 20H47C45.3431 20 44 18.6569 44 17V11C44 9.34315 45.3431 8 47 8Z" fill="#292323"/>
<path fill-rule="evenodd" clip-rule="evenodd" d="M53.4142 10.5858C54.1953 11.3668 54.1953 12.6332 53.4142 13.4142L33.4142 33.4142C32.6332 34.1953 31.3668 34.1953 30.5858 33.4142C29.8047 32.6332 29.8047 31.3668 30.5858 30.5858L50.5858 10.5858C51.3668 9.80474 52.6332 9.80474 53.4142 10.5858Z" fill="#292323"/>
<path fill-rule="evenodd" clip-rule="evenodd" d="M51 6C51.5523 6 52 6.44772 52 7V12H57C57.5523 12 58 12.4477 58 13C58 13.5523 57.5523 14 57 14H51C50.4477 14 50 13.5523 50 13V7C50 6.44772 50.4477 6 51 6Z" fill="#646161"/>
<path fill-rule="evenodd" clip-rule="evenodd" d="M47 10C47.5523 10 48 10.4477 48 11V16H53C53.5523 16 54 16.4477 54 17C54 17.5523 53.5523 18 53 18H47C46.4477 18 46 17.5523 46 17V11C46 10.4477 46.4477 10 47 10Z" fill="#4E4C4C"/>
<path d="M23 22C23 22.5523 22.5523 23 22 23C21.4477 23 21 22.5523 21 22C21 21.4477 21.4477 21 22 21C22.5523 21 23 21.4477 23 22Z" fill="white"/>
</svg>
