<?xml version="1.0" encoding="UTF-8" standalone="no"?> <svg width="64" height="64" viewBox="0 0 64 64" fill="none" xmlns="http://www.w3.org/2000/svg">
<path d="M16 55L48 55C53.5228 55 58 50.5228 58 45L58 27L6 27L6 45C6 50.5228 10.4772 55 16 55Z" fill="#F3DFB7"/>
<path fill-rule="evenodd" clip-rule="evenodd" d="M9.44677 52.5535C7.92273 50.7984 7.00024 48.5069 7.00024 46L7.00025 28L58.0002 28V27L6.00025 27L6.00024 45C6.00024 48.0159 7.33535 50.72 9.44677 52.5535Z" fill="#FFF3DC"/>
<path d="M48 15L16 15C10.4772 15 6 19.4772 6 25L6 27L58 27V25C58 19.4772 53.5228 15 48 15Z" fill="#686666"/>
<path fill-rule="evenodd" clip-rule="evenodd" d="M16 15H48C51.0159 15 53.72 16.3351 55.5535 18.4465C53.7984 16.9225 51.5069 16 49 16H17C11.4772 16 7 20.4772 7 26V27H6V25C6 19.4772 10.4772 15 16 15Z" fill="#999494"/>
<path d="M16 13L48 13C54.6274 13 60 18.3726 60 25V27H58V25C58 19.4772 53.5228 15 48 15L16 15C10.4772 15 6 19.4772 6 25L6 27H4L4 25C4 18.3726 9.37258 13 16 13Z" fill="#433D3D"/>
<path d="M48 57L16 57C9.37259 57 4 51.6274 4 45L4 27L6 27L6 45C6 50.5228 10.4772 55 16 55L48 55C53.5228 55 58 50.5228 58 45L58 27L60 27L60 45C60 51.6274 54.6274 57 48 57Z" fill="#826E47"/>
<path d="M16 35C16 36.1046 15.1046 37 14 37C12.8954 37 12 36.1046 12 35C12 33.8954 12.8954 33 14 33C15.1046 33 16 33.8954 16 35Z" fill="#F3DFB7"/>
<path fill-rule="evenodd" clip-rule="evenodd" d="M18 35C18 37.2091 16.2091 39 14 39C11.7909 39 10 37.2091 10 35C10 32.7909 11.7909 31 14 31C16.2091 31 18 32.7909 18 35ZM14 37C15.1046 37 16 36.1046 16 35C16 33.8954 15.1046 33 14 33C12.8954 33 12 33.8954 12 35C12 36.1046 12.8954 37 14 37Z" fill="#826E47"/>
<path d="M16 47C16 48.1046 15.1046 49 14 49C12.8954 49 12 48.1046 12 47C12 45.8954 12.8954 45 14 45C15.1046 45 16 45.8954 16 47Z" fill="#F3DFB7"/>
<path fill-rule="evenodd" clip-rule="evenodd" d="M18 47C18 49.2091 16.2091 51 14 51C11.7909 51 10 49.2091 10 47C10 44.7909 11.7909 43 14 43C16.2091 43 18 44.7909 18 47ZM14 49C15.1046 49 16 48.1046 16 47C16 45.8954 15.1046 45 14 45C12.8954 45 12 45.8954 12 47C12 48.1046 12.8954 49 14 49Z" fill="#826E47"/>
<path d="M40 35C40 36.1046 39.1046 37 38 37C36.8954 37 36 36.1046 36 35C36 33.8954 36.8954 33 38 33C39.1046 33 40 33.8954 40 35Z" fill="#F3DFB7"/>
<path fill-rule="evenodd" clip-rule="evenodd" d="M42 35C42 37.2091 40.2091 39 38 39C35.7909 39 34 37.2091 34 35C34 32.7909 35.7909 31 38 31C40.2091 31 42 32.7909 42 35ZM38 37C39.1046 37 40 36.1046 40 35C40 33.8954 39.1046 33 38 33C36.8954 33 36 33.8954 36 35C36 36.1046 36.8954 37 38 37Z" fill="#826E47"/>
<path d="M40 47C40 48.1046 39.1046 49 38 49C36.8954 49 36 48.1046 36 47C36 45.8954 36.8954 45 38 45C39.1046 45 40 45.8954 40 47Z" fill="#F3DFB7"/>
<path fill-rule="evenodd" clip-rule="evenodd" d="M42 47C42 49.2091 40.2091 51 38 51C35.7909 51 34 49.2091 34 47C34 44.7909 35.7909 43 38 43C40.2091 43 42 44.7909 42 47ZM38 49C39.1046 49 40 48.1046 40 47C40 45.8954 39.1046 45 38 45C36.8954 45 36 45.8954 36 47C36 48.1046 36.8954 49 38 49Z" fill="#826E47"/>
<path d="M28 35C28 36.1046 27.1046 37 26 37C24.8954 37 24 36.1046 24 35C24 33.8954 24.8954 33 26 33C27.1046 33 28 33.8954 28 35Z" fill="#F3DFB7"/>
<path fill-rule="evenodd" clip-rule="evenodd" d="M30 35C30 37.2091 28.2091 39 26 39C23.7909 39 22 37.2091 22 35C22 32.7909 23.7909 31 26 31C28.2091 31 30 32.7909 30 35ZM26 37C27.1046 37 28 36.1046 28 35C28 33.8954 27.1046 33 26 33C24.8954 33 24 33.8954 24 35C24 36.1046 24.8954 37 26 37Z" fill="#826E47"/>
<path d="M28 47C28 48.1046 27.1046 49 26 49C24.8954 49 24 48.1046 24 47C24 45.8954 24.8954 45 26 45C27.1046 45 28 45.8954 28 47Z" fill="#F3DFB7"/>
<path fill-rule="evenodd" clip-rule="evenodd" d="M30 47C30 49.2091 28.2091 51 26 51C23.7909 51 22 49.2091 22 47C22 44.7909 23.7909 43 26 43C28.2091 43 30 44.7909 30 47ZM26 49C27.1046 49 28 48.1046 28 47C28 45.8954 27.1046 45 26 45C24.8954 45 24 45.8954 24 47C24 48.1046 24.8954 49 26 49Z" fill="#826E47"/>
<path d="M52 35C52 36.1046 51.1046 37 50 37C48.8954 37 48 36.1046 48 35C48 33.8954 48.8954 33 50 33C51.1046 33 52 33.8954 52 35Z" fill="#F3DFB7"/>
<path fill-rule="evenodd" clip-rule="evenodd" d="M54 35C54 37.2091 52.2091 39 50 39C47.7909 39 46 37.2091 46 35C46 32.7909 47.7909 31 50 31C52.2091 31 54 32.7909 54 35ZM50 37C51.1046 37 52 36.1046 52 35C52 33.8954 51.1046 33 50 33C48.8954 33 48 33.8954 48 35C48 36.1046 48.8954 37 50 37Z" fill="#826E47"/>
<path d="M52 47C52 48.1046 51.1046 49 50 49C48.8954 49 48 48.1046 48 47C48 45.8954 48.8954 45 50 45C51.1046 45 52 45.8954 52 47Z" fill="#F55B54"/>
<path fill-rule="evenodd" clip-rule="evenodd" d="M54 47C54 49.2091 52.2091 51 50 51C47.7909 51 46 49.2091 46 47C46 44.7909 47.7909 43 50 43C52.2091 43 54 44.7909 54 47ZM50 49C51.1046 49 52 48.1046 52 47C52 45.8954 51.1046 45 50 45C48.8954 45 48 45.8954 48 47C48 48.1046 48.8954 49 50 49Z" fill="#A83C37"/>
<path fill-rule="evenodd" clip-rule="evenodd" d="M15.8232 34.1768C15.5722 34.0632 15.2935 34 15 34C13.8954 34 13 34.8954 13 36C13 36.2935 13.0632 36.5722 13.1768 36.8232C12.4828 36.5094 12 35.8111 12 35C12 33.8954 12.8954 33 14 33C14.8111 33 15.5094 33.4828 15.8232 34.1768Z" fill="#FFF3DC"/>
<path fill-rule="evenodd" clip-rule="evenodd" d="M15.8232 46.1768C15.5722 46.0632 15.2935 46 15 46C13.8954 46 13 46.8954 13 48C13 48.2935 13.0632 48.5722 13.1768 48.8232C12.4828 48.5094 12 47.8111 12 47C12 45.8954 12.8954 45 14 45C14.8111 45 15.5094 45.4828 15.8232 46.1768Z" fill="#FFF3DC"/>
<path fill-rule="evenodd" clip-rule="evenodd" d="M27.8232 34.1768C27.5722 34.0632 27.2935 34 27 34C25.8954 34 25 34.8954 25 36C25 36.2935 25.0632 36.5722 25.1768 36.8232C24.4828 36.5094 24 35.8111 24 35C24 33.8954 24.8954 33 26 33C26.8111 33 27.5094 33.4828 27.8232 34.1768Z" fill="#FFF3DC"/>
<path fill-rule="evenodd" clip-rule="evenodd" d="M27.8232 46.1768C27.5722 46.0632 27.2935 46 27 46C25.8954 46 25 46.8954 25 48C25 48.2935 25.0632 48.5722 25.1768 48.8232C24.4828 48.5094 24 47.8111 24 47C24 45.8954 24.8954 45 26 45C26.8111 45 27.5094 45.4828 27.8232 46.1768Z" fill="#FFF3DC"/>
<path fill-rule="evenodd" clip-rule="evenodd" d="M39.8232 34.1768C39.5722 34.0632 39.2935 34 39 34C37.8954 34 37 34.8954 37 36C37 36.2935 37.0632 36.5722 37.1768 36.8232C36.4828 36.5094 36 35.8111 36 35C36 33.8954 36.8954 33 38 33C38.8111 33 39.5094 33.4828 39.8232 34.1768Z" fill="#FFF3DC"/>
<path fill-rule="evenodd" clip-rule="evenodd" d="M51.8232 34.1768C51.5722 34.0632 51.2935 34 51 34C49.8954 34 49 34.8954 49 36C49 36.2935 49.0632 36.5722 49.1768 36.8232C48.4828 36.5094 48 35.8111 48 35C48 33.8954 48.8954 33 50 33C50.8111 33 51.5094 33.4828 51.8232 34.1768Z" fill="#FFF3DC"/>
<path fill-rule="evenodd" clip-rule="evenodd" d="M51.8232 46.1768C51.5722 46.0632 51.2935 46 51 46C49.8954 46 49 46.8954 49 48C49 48.2935 49.0632 48.5722 49.1768 48.8232C48.4828 48.5094 48 47.8111 48 47C48 45.8954 48.8954 45 50 45C50.8111 45 51.5094 45.4828 51.8232 46.1768Z" fill="#FF8B86"/>
<path fill-rule="evenodd" clip-rule="evenodd" d="M39.8232 46.1768C39.5722 46.0632 39.2935 46 39 46C37.8954 46 37 46.8954 37 48C37 48.2935 37.0632 48.5722 37.1768 48.8232C36.4828 48.5094 36 47.8111 36 47C36 45.8954 36.8954 45 38 45C38.8111 45 39.5094 45.4828 39.8232 46.1768Z" fill="#FFF3DC"/>
<path d="M21 17C21 19.2091 19.2091 21 17 21C14.7909 21 13 19.2091 13 17C13 14.7909 14.7909 13 17 13C19.2091 13 21 14.7909 21 17Z" fill="#433D3D"/>
<path d="M31 17C31 19.2091 29.2091 21 27 21C24.7909 21 23 19.2091 23 17C23 14.7909 24.7909 13 27 13C29.2091 13 31 14.7909 31 17Z" fill="#433D3D"/>
<path d="M41 17C41 19.2091 39.2091 21 37 21C34.7909 21 33 19.2091 33 17C33 14.7909 34.7909 13 37 13C39.2091 13 41 14.7909 41 17Z" fill="#433D3D"/>
<path d="M51 17C51 19.2091 49.2091 21 47 21C44.7909 21 43 19.2091 43 17C43 14.7909 44.7909 13 47 13C49.2091 13 51 14.7909 51 17Z" fill="#433D3D"/>
<path fill-rule="evenodd" clip-rule="evenodd" d="M47 9C48.1046 9 49 9.89543 49 11V17C49 18.1046 48.1046 19 47 19C45.8954 19 45 18.1046 45 17V11C45 9.89543 45.8954 9 47 9Z" fill="#292323"/>
<path fill-rule="evenodd" clip-rule="evenodd" d="M37 9C38.1046 9 39 9.89543 39 11V17C39 18.1046 38.1046 19 37 19C35.8954 19 35 18.1046 35 17V11C35 9.89543 35.8954 9 37 9Z" fill="#292323"/>
<path fill-rule="evenodd" clip-rule="evenodd" d="M27 9C28.1046 9 29 9.89543 29 11V17C29 18.1046 28.1046 19 27 19C25.8954 19 25 18.1046 25 17V11C25 9.89543 25.8954 9 27 9Z" fill="#292323"/>
<path fill-rule="evenodd" clip-rule="evenodd" d="M17 9C18.1046 9 19 9.89543 19 11V17C19 18.1046 18.1046 19 17 19C15.8954 19 15 18.1046 15 17V11C15 9.89543 15.8954 9 17 9Z" fill="#292323"/>
<path fill-rule="evenodd" clip-rule="evenodd" d="M17 11C17.5523 11 18 11.4477 18 12V14C18 14.5523 17.5523 15 17 15C16.4477 15 16 14.5523 16 14V12C16 11.4477 16.4477 11 17 11Z" fill="#4E4C4C"/>
<path fill-rule="evenodd" clip-rule="evenodd" d="M27 11C27.5523 11 28 11.4477 28 12V14C28 14.5523 27.5523 15 27 15C26.4477 15 26 14.5523 26 14V12C26 11.4477 26.4477 11 27 11Z" fill="#4E4C4C"/>
<path fill-rule="evenodd" clip-rule="evenodd" d="M37 11C37.5523 11 38 11.4477 38 12V14C38 14.5523 37.5523 15 37 15C36.4477 15 36 14.5523 36 14V12C36 11.4477 36.4477 11 37 11Z" fill="#4E4C4C"/>
<path fill-rule="evenodd" clip-rule="evenodd" d="M47 11C47.5523 11 48 11.4477 48 12V14C48 14.5523 47.5523 15 47 15C46.4477 15 46 14.5523 46 14V12C46 11.4477 46.4477 11 47 11Z" fill="#4E4C4C"/>
<path d="M18 12C18 12.5523 17.5523 13 17 13C16.4477 13 16 12.5523 16 12C16 11.4477 16.4477 11 17 11C17.5523 11 18 11.4477 18 12Z" fill="#989494"/>
<path d="M28 12C28 12.5523 27.5523 13 27 13C26.4477 13 26 12.5523 26 12C26 11.4477 26.4477 11 27 11C27.5523 11 28 11.4477 28 12Z" fill="#989494"/>
<path d="M38 12C38 12.5523 37.5523 13 37 13C36.4477 13 36 12.5523 36 12C36 11.4477 36.4477 11 37 11C37.5523 11 38 11.4477 38 12Z" fill="#989494"/>
<path d="M48 12C48 12.5523 47.5523 13 47 13C46.4477 13 46 12.5523 46 12C46 11.4477 46.4477 11 47 11C47.5523 11 48 11.4477 48 12Z" fill="#989494"/>
<rect x="6" y="25" width="52" height="2" fill="#433D3D"/>
</svg>
